<?xml version="1.0" encoding="utf-8"?>
<!-- Generator: Adobe Illustrator 16.0.0, SVG Export Plug-In . SVG Version: 6.00 Build 0)  -->
<!DOCTYPE svg PUBLIC "-//W3C//DTD SVG 1.1//EN" "http://www.w3.org/Graphics/SVG/1.1/DTD/svg11.dtd">
<svg version="1.1" id="Capa_1" xmlns="http://www.w3.org/2000/svg" xmlns:xlink="http://www.w3.org/1999/xlink" x="0px" y="0px"
	 width="474px" height="474px" viewBox="0 0 474 474" enable-background="new 0 0 474 474" xml:space="preserve">
<g>
	<path fill="#FFFFFF" d="M226.847,199.617c2.7,0,4.05,1.2,4.05,3.6c0,1.102-0.352,2.302-1.05,3.6l-37.5,64.8
		c-1.102,2.002-2.775,3.701-5.025,5.1c-2.25,1.402-4.326,2.101-6.225,2.101h-36c-2.801,0-4.2-1.2-4.2-3.601
		c0-1.099,0.35-2.299,1.05-3.6l33.301-57.6c0.698-1.299,1.05-2.499,1.05-3.6c0-2.4-1.351-3.6-4.05-3.6
		c-1.997,0-4.095,0.701-6.293,2.103c-2.199,1.401-3.896,3.105-5.094,5.107l-33.3,57.6c-1.102,1.996-2.777,3.695-5.027,5.093
		c-2.25,1.399-4.326,2.098-6.225,2.098H80.297c-2.801,0-4.2-1.2-4.2-3.601c0-1.099,0.35-2.299,1.05-3.6l69.75-120.6
		c1.5-2.6,3.05-3.9,4.65-3.9c0.899,0,1.649,0.45,2.25,1.35l19.95,33.9c0.6,1.001,0.899,2.351,0.899,4.05c0,2.5-0.6,4.8-1.8,6.9
		c-0.6,1.001-0.9,1.95-0.9,2.85c0,2.301,1.5,3.45,4.5,3.45H226.847z"/>
	<path fill="#FFFFFF" d="M362.596,214.018c0.697-1.299,1.049-2.499,1.049-3.6c0-2.4-1.35-3.6-4.049-3.6
		c-1.998,0-4.094,0.703-6.289,2.104c-2.195,1.402-3.893,3.105-5.088,5.109l-33.207,57.654c-1.104,1.982-2.781,3.666-5.037,5.053
		c-2.254,1.388-4.336,2.079-6.238,2.079h-36.082c-2.809,0-4.209-1.2-4.209-3.604c0-1.102,0.344-2.302,1.035-3.605l33.301-57.6
		c0.707-1.298,1.064-2.496,1.064-3.595c0-2.395-1.352-3.595-4.051-3.595c-2.002,0-4.102,0.701-6.301,2.1
		c-2.199,1.401-3.898,3.101-5.1,5.1l-33.299,57.6c-1.102,2.002-2.775,3.701-5.025,5.1c-2.25,1.402-4.326,2.101-6.225,2.101h-36
		c-2.801,0-4.2-1.2-4.2-3.601c0-1.099,0.352-2.299,1.05-3.6l37.5-64.8c1.1-1.999,2.776-3.698,5.026-5.1
		c2.25-1.399,4.373-2.1,6.375-2.1h165.6c2.699,0,4.049,1.2,4.049,3.6c0,1.102-0.352,2.302-1.049,3.6l-69.6,120.6
		c-1.5,2.6-3.102,3.9-4.801,3.9c-0.9,0-1.602-0.502-2.1-1.5l-19.951-33.75c-0.6-1.102-0.898-2.501-0.898-4.2
		c0-2.5,0.6-4.75,1.801-6.75L362.596,214.018z"/>
</g>
</svg>
