<?xml version="1.0" encoding="utf-8"?>
<!-- Generator: Adobe Illustrator 16.0.0, SVG Export Plug-In . SVG Version: 6.00 Build 0)  -->
<!DOCTYPE svg PUBLIC "-//W3C//DTD SVG 1.1//EN" "http://www.w3.org/Graphics/SVG/1.1/DTD/svg11.dtd">
<svg version="1.1" id="Capa_1" xmlns="http://www.w3.org/2000/svg" xmlns:xlink="http://www.w3.org/1999/xlink" x="0px" y="0px"
	 width="474px" height="474px" viewBox="0 0 474 474" enable-background="new 0 0 474 474" xml:space="preserve">
<g>
	<g>
		<path fill="#FFFFFF" d="M17.887,120.736h438.227c9.873,0,17.887-8.013,17.887-17.887s-8.014-17.887-17.887-17.887H17.887
			C8.013,84.962,0,92.976,0,102.849S8.013,120.736,17.887,120.736z"/>
		<path fill="#FFFFFF" d="M17.887,254.887h438.227c9.873,0,17.887-8.014,17.887-17.887c0-9.874-8.014-17.887-17.887-17.887H17.887
			C8.013,219.113,0,227.126,0,237C0,246.873,8.013,254.887,17.887,254.887z"/>
		<path fill="#FFFFFF" d="M17.887,389.037h438.227c9.873,0,17.887-8.013,17.887-17.887c0-9.873-8.014-17.887-17.887-17.887H17.887
			C8.013,353.264,0,361.277,0,371.15C0,381.024,8.013,389.037,17.887,389.037z"/>
	</g>
</g>
</svg>
